# xmcd CD database file
#
# Track frame offsets:
#	150
#	22245
#	40235
#	53082
#	66737
#	86327
#	99185
#	116577
#	140502
#	152492
#
# Disc length: 2327 seconds
#
# Revision: 1
# Processed by: cddbd v1.5.2PL0 Copyright (c) Steve Scherf et al.
# Submitted via: CDex 1.70beta2
#
DISCID=8209150a
DTITLE=Bryn Haworth - The Gap
DYEAR=1980
DGENRE=Blues
TTITLE0=The Gap
TTITLE1=Egypt
TTITLE2=I Can Do All Things
TTITLE3=New World Coming
TTITLE4=It Could Have Been Me
TTITLE5=Power Of the Holy Spirit
TTITLE6=More Of You
TTITLE7=New Jerusalem
TTITLE8=No Time
TTITLE9=Send Down the Rain
EXTD=YEAR: 1980
EXTT0=
EXTT1=
EXTT2=
EXTT3=
EXTT4=
EXTT5=
EXTT6=
EXTT7=
EXTT8=
EXTT9=
PLAYORDER=
